# xmcd CD database file
#
# Track frame offsets:
#	150
#	13855
#	28329
#	45118
#	60785
#	82676
#	100398
#	116237
#	139297
#	159138
#	176865
#	195809
#
# Disc length: 2874 seconds
#
# Revision: 0
# Processed by: cddbd v1.5.2PL0 Copyright (c) Steve Scherf et al.
# Submitted via: CDex 1.51
#
DISCID=8c0b380c
DTITLE=Dr. Sunflower - Krotal oil liniment
DYEAR=2009
DGENRE=Blues
TTITLE0=Lindberg hop
TTITLE1=Border of quarter
TTITLE2=That's all
TTITLE3=I'd rather drink muddy water
TTITLE4=Mississippi Delta Blues
TTITLE5=Train whistle Blues
TTITLE6=From four till late
TTITLE7=Navajo trail
TTITLE8=Broke man's Blues
TTITLE9=Night train to Memphis
TTITLE10=Blues got the world
TTITLE11=In a town this size
EXTD=YEAR: 2009
EXTT0=
EXTT1=
EXTT2=
EXTT3=
EXTT4=
EXTT5=
EXTT6=
EXTT7=
EXTT8=
EXTT9=
EXTT10=
EXTT11=
PLAYORDER=
